HIERARCHY
ROOT hips
{
  OFFSET 0 10.074487846421558 1.314567655973056
  CHANNELS 6 Xposition Yposition Zposition Yrotation Xrotation Zrotation
  JOINT spine
  {
    OFFSET -7.042773748992335e-31 0.5690686926897363 0
    CHANNELS 3 Yrotation Xrotation Zrotation
    JOINT chest
    {
      OFFSET 0 1.2435964857087873 0
      CHANNELS 3 Yrotation Xrotation Zrotation
      JOINT upperChest
      {
        OFFSET 0 1.194994586872362 0
        CHANNELS 3 Yrotation Xrotation Zrotation
        JOINT neck
        {
          OFFSET 0 1.515103653293861 0
          CHANNELS 3 Yrotation Xrotation Zrotation
          JOINT head
          {
            OFFSET 0 0.8111851616465653 0
            CHANNELS 3 Yrotation Xrotation Zrotation
            JOINT leftEye
            {
              OFFSET 0.27141371691966987 0.7490044407698551 0.18219031050045686
              CHANNELS 3 Yrotation Xrotation Zrotation
              End Site
              {
                OFFSET 0.27141371691966987 0.7490044407698551 0.18219031050045686
              }
            }
            JOINT rightEye
            {
              OFFSET -0.2714136877644943 0.7490044019380786 0.18219040411850668
              CHANNELS 3 Yrotation Xrotation Zrotation
              End Site
              {
                OFFSET -0.2714136877644943 0.7490044019380786 0.18219040411850668
              }
            }
          }
        }
        JOINT leftShoulder
        {
          OFFSET 0.4137993136083964 1.1593397335613034 0
          CHANNELS 3 Yrotation Xrotation Zrotation
          JOINT leftUpperArm
          {
            OFFSET 1.0096991868951026 0 0
            CHANNELS 3 Yrotation Xrotation Zrotation
            JOINT leftLowerArm
            {
              OFFSET 2.418380967671622 0 0
              CHANNELS 3 Yrotation Xrotation Zrotation
              JOINT leftHand
              {
                OFFSET 2.361538296260114 0 0
                CHANNELS 3 Yrotation Xrotation Zrotation
                JOINT leftIndexProximal
                {
                  OFFSET 0.7243699271447109 0.08118285989887508 0.2022042461579805
                  CHANNELS 3 Yrotation Xrotation Zrotation
                  JOINT leftIndexIntermediate
                  {
                    OFFSET 0.36553107045252053 -0.010567764853200323 -0.014102670024158437
                    CHANNELS 3 Yrotation Xrotation Zrotation
                    JOINT leftIndexDistal
                    {
                      OFFSET 0.22505120770060527 -0.007821041598631284 -0.007511611613336286
                      CHANNELS 3 Yrotation Xrotation Zrotation
                      End Site
                      {
                        OFFSET 0.22505120770060527 -0.007821041598631284 -0.007511611613336286
                      }
                    }
                  }
                }
                JOINT leftLittleProximal
                {
                  OFFSET 0.6721063881632002 0.08118279568569564 -0.3209324945517917
                  CHANNELS 3 Yrotation Xrotation Zrotation
                  JOINT leftLittleIntermediate
                  {
                    OFFSET 0.34587329423120616 5.3042709780015684e-8 -5.929537746918179e-8
                    CHANNELS 3 Yrotation Xrotation Zrotation
                    JOINT leftLittleDistal
                    {
                      OFFSET 0.1992782500022232 0.0030983716482184676 0.0038310952896712935
                      CHANNELS 3 Yrotation Xrotation Zrotation
                      End Site
                      {
                        OFFSET 0.1992782500022232 0.0030983716482184676 0.0038310952896712935
                      }
                    }
                  }
                }
                JOINT leftMiddleProximal
                {
                  OFFSET 0.7301229696860206 0.08118412848995638 0.022516891543707507
                  CHANNELS 3 Yrotation Xrotation Zrotation
                  JOINT leftMiddleIntermediate
                  {
                    OFFSET 0.4076277831942017 -0.000001240188283180288 -1.6203245635504349e-7
                    CHANNELS 3 Yrotation Xrotation Zrotation
                    JOINT leftMiddleDistal
                    {
                      OFFSET 0.2514739255593972 0.0000013850839168938478 -1.8644847207816007e-8
                      CHANNELS 3 Yrotation Xrotation Zrotation
                      End Site
                      {
                        OFFSET 0.2514739255593972 0.0000013850839168938478 -1.8644847207816007e-8
                      }
                    }
                  }
                }
                JOINT leftRingProximal
                {
                  OFFSET 0.7218060861525873 0.08118280646416753 -0.1494689818508163
                  CHANNELS 3 Yrotation Xrotation Zrotation
                  JOINT leftRingIntermediate
                  {
                    OFFSET 0.3781267508900358 0.000001373626195677602 -1.4143108284514483e-7
                    CHANNELS 3 Yrotation Xrotation Zrotation
                    JOINT leftRingDistal
                    {
                      OFFSET 0.21814333268795483 -0.0027137626495670197 -0.004991775417842292
                      CHANNELS 3 Yrotation Xrotation Zrotation
                      End Site
                      {
                        OFFSET 0.21814333268795483 -0.0027137626495670197 -0.004991775417842292
                      }
                    }
                  }
                }
                JOINT leftThumbProximal
                {
                  OFFSET 0.10743676110519984 -0.16423092885053192 -0.07708859146227388
                  CHANNELS 3 Yrotation Xrotation Zrotation
                  JOINT leftThumbIntermediate
                  {
                    OFFSET 0.40350402100066307 -0.01735099334274981 0.315629965828783
                    CHANNELS 3 Yrotation Xrotation Zrotation
                    JOINT leftThumbDistal
                    {
                      OFFSET 0.2320014489535681 -0.01842351809041043 0.21271298411519196
                      CHANNELS 3 Yrotation Xrotation Zrotation
                      End Site
                      {
                        OFFSET 0.2320014489535681 -0.01842351809041043 0.21271298411519196
                      }
                    }
                  }
                }
              }
            }
          }
        }
        JOINT rightShoulder
        {
          OFFSET -0.41379931360839656 1.1593397335613034 0
          CHANNELS 3 Yrotation Xrotation Zrotation
          JOINT rightUpperArm
          {
            OFFSET -1.0096991868951024 0 0
            CHANNELS 3 Yrotation Xrotation Zrotation
            JOINT rightLowerArm
            {
              OFFSET -2.4183809676716232 0 0
              CHANNELS 3 Yrotation Xrotation Zrotation
              JOINT rightHand
              {
                OFFSET -2.3615382962601132 0 0
                CHANNELS 3 Yrotation Xrotation Zrotation
                JOINT rightIndexProximal
                {
                  OFFSET -0.7243699271447109 0.08118285989887508 0.2022042461579805
                  CHANNELS 3 Yrotation Xrotation Zrotation
                  JOINT rightIndexIntermediate
                  {
                    OFFSET -0.36553107045252053 -0.010567764853200323 -0.014102670024158437
                    CHANNELS 3 Yrotation Xrotation Zrotation
                    JOINT rightIndexDistal
                    {
                      OFFSET -0.22505120770060527 -0.007821041598631284 -0.007511611613336286
                      CHANNELS 3 Yrotation Xrotation Zrotation
                      End Site
                      {
                        OFFSET -0.22505120770060527 -0.007821041598631284 -0.007511611613336286
                      }
                    }
                  }
                }
                JOINT rightLittleProximal
                {
                  OFFSET -0.6721063881632002 0.08118279568569564 -0.3209324945517917
                  CHANNELS 3 Yrotation Xrotation Zrotation
                  JOINT rightLittleIntermediate
                  {
                    OFFSET -0.34587329423120616 5.3042709780015684e-8 -5.929537746918179e-8
                    CHANNELS 3 Yrotation Xrotation Zrotation
                    JOINT rightLittleDistal
                    {
                      OFFSET -0.1992782500022232 0.0030983716482184676 0.0038310952896712935
                      CHANNELS 3 Yrotation Xrotation Zrotation
                      End Site
                      {
                        OFFSET -0.1992782500022232 0.0030983716482184676 0.0038310952896712935
                      }
                    }
                  }
                }
                JOINT rightMiddleProximal
                {
                  OFFSET -0.7301229696860206 0.08118412848995638 0.022516891543707507
                  CHANNELS 3 Yrotation Xrotation Zrotation
                  JOINT rightMiddleIntermediate
                  {
                    OFFSET -0.4076277831942017 -0.000001240188283180288 -1.6203245635504349e-7
                    CHANNELS 3 Yrotation Xrotation Zrotation
                    JOINT rightMiddleDistal
                    {
                      OFFSET -0.2514739255593972 0.0000013850839168938478 -1.8644847207816007e-8
                      CHANNELS 3 Yrotation Xrotation Zrotation
                      End Site
                      {
                        OFFSET -0.2514739255593972 0.0000013850839168938478 -1.8644847207816007e-8
                      }
                    }
                  }
                }
                JOINT rightRingProximal
                {
                  OFFSET -0.7218060861525873 0.08118280646416753 -0.1494689818508163
                  CHANNELS 3 Yrotation Xrotation Zrotation
                  JOINT rightRingIntermediate
                  {
                    OFFSET -0.3781267508900358 0.000001373626195677602 -1.4143108284514483e-7
                    CHANNELS 3 Yrotation Xrotation Zrotation
                    JOINT rightRingDistal
                    {
                      OFFSET -0.21814333268795483 -0.0027137626495670197 -0.004991775417842292
                      CHANNELS 3 Yrotation Xrotation Zrotation
                      End Site
                      {
                        OFFSET -0.21814333268795483 -0.0027137626495670197 -0.004991775417842292
                      }
                    }
                  }
                }
                JOINT rightThumbProximal
                {
                  OFFSET -0.10743676110519984 -0.16423092885053192 -0.07708859146227388
                  CHANNELS 3 Yrotation Xrotation Zrotation
                  JOINT rightThumbIntermediate
                  {
                    OFFSET -0.40350402100066307 -0.01735099334274981 0.315629965828783
                    CHANNELS 3 Yrotation Xrotation Zrotation
                    JOINT rightThumbDistal
                    {
                      OFFSET -0.2320014489535681 -0.01842351809041043 0.21271298411519196
                      CHANNELS 3 Yrotation Xrotation Zrotation
                      End Site
                      {
                        OFFSET -0.2320014489535681 -0.01842351809041043 0.21271298411519196
                      }
                    }
                  }
                }
              }
            }
          }
        }
      }
    }
  }
  JOINT leftUpperLeg
  {
    OFFSET 0.8487163290887698 -0.43932186100277326 0
    CHANNELS 3 Yrotation Xrotation Zrotation
    JOINT leftLowerLeg
    {
      OFFSET 0 -3.882816707004296 0
      CHANNELS 3 Yrotation Xrotation Zrotation
      JOINT leftFoot
      {
        OFFSET 0 -4.570431027442807 0.004629272230691511
        CHANNELS 3 Yrotation Xrotation Zrotation
        JOINT leftToes
        {
          OFFSET 0 -0.698875637876343 1.214565366696912
          CHANNELS 3 Yrotation Xrotation Zrotation
          End Site
          {
            OFFSET 0 -0.698875637876343 1.214565366696912
          }
        }
      }
    }
  }
  JOINT rightUpperLeg
  {
    OFFSET -0.8487163290887698 -0.43932186100277326 0
    CHANNELS 3 Yrotation Xrotation Zrotation
    JOINT rightLowerLeg
    {
      OFFSET 0 -3.882816707004296 0
      CHANNELS 3 Yrotation Xrotation Zrotation
      JOINT rightFoot
      {
        OFFSET 0 -4.570431027442807 0.004629272230691511
        CHANNELS 3 Yrotation Xrotation Zrotation
        JOINT rightToes
        {
          OFFSET 0 -0.698875637876343 1.214565366696912
          CHANNELS 3 Yrotation Xrotation Zrotation
          End Site
          {
            OFFSET 0 -0.698875637876343 1.214565366696912
          }
        }
      }
    }
  }
}
MOTION
Frames: 4
Frame Time: 0.03333333333333333
0.05254092812538147 -0.28591172032292533 0.025126665830612183 1.501465835117799 -0.8965673258700954 -5.569872891757185 -0.0009297726382320139 0.515428287920488 3.5379028237246617 0.06464308368184725 2.058958185504137 11.479726653349342 0 0 0 -0.16666792621908955 1.0777242876972764 -3.024693690152292 0.3030312834390576 1.5385660155545433 -7.265559367985757 0 0 0 0 0 0 -13.845925908785741 3.499376746608441 -5.065105916119998 2.856038445508211 4.707648480645482 -80.84534154552921 -16.95020908556233 -1.1243398655365278 0.359205370033608 6.256546767937627 -26.259805867021008 -11.492333184527444 4.570559229614211 0.28330808976593486 -7.920406874427185 2.3802674386143607 0.3050831534218406 -20.6081049506566 0.5866312602086697 0.014196615036201584 -10.184975388661622 15.155732220276908 5.583881271320379 -35.80510744858559 3.145868331499056 0.9808331879274803 -45.64804323365621 2.403588471549906 0.40405759691415216 -20.56313659053012 8.464210442878203 1.0163262141253866 -15.88399051116134 3.265473434146313 0.6898393056782107 -33.03162268124727 1.2343981487036984 0.1494563011759294 -12.694323206196692 11.040428479614171 2.5270968557215596 -26.05031571160288 3.129378372240654 1.4310467330323846 -40.73366083019468 1.42653422161336 0.47496793693065925 -19.449952773409716 -2.217420635910714 18.390627949524394 10.373115169134552 32.67724161684102 2.4565336128025845 -2.6776363924834206 9.26050767922868 1.9221001785205558 2.4726961920491277 3.3966612036143515 4.498918962858705 5.034998028900005 0.9165373306249726 -0.5891674529151258 64.6489329092901 19.923863774196064 -1.2800307795798957 -0.4476195881738567 -10.230235402186612 -9.535907702810212 11.977020449904874 -4.5738855832539205 0.2838465340469211 7.9132449248432115 -2.380534868484178 0.30514286506287586 20.608064979809953 0.09519748329085612 -0.23094162084543707 13.84451743927203 -15.15615257068085 5.5825747759416675 35.79816012522849 -3.146373059576735 0.981117749701905 45.647970837202145 3.4334412879549414 -1.7684945777531436 12.48680524221133 -8.464979920531126 1.016028627207467 15.876949394957634 -3.265894414082163 0.6900088987637467 33.03159046614085 3.4698311345467596 -1.488900356862489 16.40550758948313 -11.035978258430125 2.52399037111368 26.043947869429335 -3.1298499250331 1.4312937641208698 40.733628975431486 4.7828858311501286 -1.9594577706717557 19.05576636436501 2.2145318489023333 18.388092543915118 -10.37857455587594 -32.676824984514546 2.4544807501075048 2.6772515791858584 -8.352039977684957 1.7846094038645401 -1.7625136237437835 11.642492942403951 -20.29038969364671 12.097287241297817 10.120750817718292 23.73930267108499 6.3900330750933785 3.324796945821617 -2.457918212682617 -9.112708378181273 0.00002921312188408113 -0.4419650867240966 -0.0000037924856961529258 -5.116939291702428 -2.823661533604579 10.91002131130219 -5.185909929928171 14.968993477281492 2.0063129574133063 1.0037210285172529 -11.161898908439063 -7.83913529088234 4.557377357179717e-7 -0.5486583779281364 0.000002555448653206635
0.051683612167835236 -0.2857400589459722 0.028328031301498413 1.5015855769247197 -0.8797002283831199 -5.563384502895383 -0.008505447312278319 0.516256108381325 3.5388299531871095 0.03474910516720162 2.064157617225164 11.479484267622508 0 0 0 -0.16521390560327917 1.077563856597486 -3.091567242728497 0.28079434954594457 1.6631142715389455 -7.214476960557414 0 0 0 0 0 0 -13.872794040737771 3.5005451807258026 -5.0503282057082854 2.7583278921660446 4.643333560996846 -80.89151432042418 -16.764973973409756 -1.1106032366397567 0.35385251954415103 5.8713443390935485 -25.99502288804695 -10.994100231210584 4.562861107714132 0.2837871960505037 -7.816899408556491 2.369444143928321 0.3010152653021069 -20.460298936014944 0.5751175365891394 0.012707023441288054 -10.037152969854573 15.171113854178667 5.484510531271967 -35.03032391169936 3.1184515410541653 0.9586182309188899 -45.19613671493381 2.3770231530019337 0.3916117583854597 -20.186734322325247 8.441777462272963 0.998969620122272 -15.536407471528472 3.2557205818676835 0.6838346577132819 -32.88338849208943 1.2233806245859422 0.14655398136337977 -12.546504813270591 11.028763110131353 2.4982155940551456 -25.74675858491494 3.1031700437828054 1.4023496721934776 -40.234712375288 1.3921529766183471 0.4579195932843598 -18.952049719272782 -2.2174133579864117 18.390644144570107 10.373105196906259 32.67724161684102 2.456538526516639 -2.6776707509275117 9.260508522349348 1.9220982564484048 2.472671868470659 3.4088685801677823 4.500465645318055 5.076458614493457 1.1040254123798594 -0.4521852018136068 64.55861989575008 20.027535811428702 -1.269751788566234 -0.45094703267231173 -8.978354452566693 -8.196624073181129 10.434071654597641 -4.582967032458135 0.29188171269498164 7.871646747371223 -2.3907559200680133 0.30900018975344035 20.74781160222466 0.09684068078458112 -0.23091480679906823 13.824521593939448 -15.156250736429694 5.539231315212058 35.698841857117394 -3.156944451896816 0.9897655146178442 45.82274334419273 3.429984780008209 -1.7706805337349634 12.518706467309897 -8.462753958135377 1.0142764086653129 15.842406780509288 -3.27550156012009 0.6959652593857054 33.17776316135252 3.4681919233734724 -1.4898705715045517 16.421304723525758 -11.02374108879602 2.513052356832007 25.982973796162018 -3.1394964291756313 1.441984983466651 40.91852577482681 4.778524816862203 -1.9623405179462448 19.094804261339046 2.2542129528734614 18.347725414011702 -10.385928096325333 -32.67264133923382 2.4284317357840077 2.6439347449487642 -8.221149815916151 1.7154334220483063 -1.7316023117149966 11.64354801421512 -20.284504078671386 12.097823063374381 10.110048856325253 23.728168671849655 6.383224588870194 3.339488235948712 -2.462486056545145 -9.125753257734763 -0.0000031534111353608077 -0.4529923632564526 0.000005163438523603992 -5.107303065675017 -2.7992208061138726 10.913438694612202 -5.182071365570233 14.927660305980407 2.0099448220870273 1.0040121420092534 -11.163503626067744 -7.847413716556741 0.000005073397265801143 -0.5773778287735705 -0.0000019865302012466748
0.04980283975601196 -0.2856589966290777 0.03465934470295906 1.5174056013404176 -0.8510275589489252 -5.543628749766049 -0.030964821541275844 0.5305187254437492 3.5389653605596947 -0.050345742799327124 2.126637359245604 11.479232988535456 0 0 0 -0.16081547206798721 1.074656778217801 -3.3133378843132224 0.11783302302941756 1.7427436689942346 -7.0253082623144945 0 0 0 0 0 0 -13.957063462561281 3.5109946477030305 -4.976278173684305 2.5136668304500502 4.476387100305776 -81.0383391372784 -16.538420732257652 -1.089314416373314 0.3473256630183374 4.5787293193310346 -23.8169089801675 -9.747118776331867 4.510160969621874 0.2773477712390653 -7.084610436794545 2.2949571221057594 0.2739857584698654 -19.446421240962998 0.49601795753144473 0.00322544177790309 -9.022993999782798 15.21731518052534 4.75645818188741 -29.565403161267266 2.9238647225425565 0.8107295270728216 -42.06458901875056 2.1882342592197657 0.30920779317272795 -17.54360877656254 8.281463782715651 0.8809740489373945 -13.096728146363251 3.188434556097875 0.6433128558645123 -31.86643825748851 1.1475401078822876 0.12738095850014844 -11.532405821636338 10.940483704106986 2.2927526791749955 -23.568327336709366 2.9167994350418307 1.2118188382978756 -36.811293800832814 1.1524030278535 0.3490648999291231 -15.53582687348339 -2.2174067006194607 18.390633347872797 10.3731335175379 32.677234016883745 2.4565577540935486 -2.677684995446088 9.260514130952245 1.9221108566992133 2.472659279951628 3.3583828273602734 4.513578321835522 5.193752199201451 2.2474226380018476 0.20883979288054055 64.32106259141278 20.723477269961858 -1.275460887031498 -0.47331073710060034 -6.231991139110942 -8.504953678970205 7.141487066780568 -4.652394497103852 0.3525919049802308 7.555222246117335 -2.468280931766556 0.33919760654695974 21.812108707948877 0.10933252750066463 -0.23064711990908474 13.67249633955112 -15.15237256710569 5.208964443115306 34.943274485737 -3.2364484452594557 1.0567172782179861 47.15388138695616 3.4035738168074396 -1.7872978556616093 12.76172233442943 -8.4611923874196 1.0062061394826305 15.577937888797296 -3.3480960861971063 0.7420535632731295 34.29083697434571 3.4557722418930115 -1.4973390393637505 16.541384353774255 -10.929971626078826 2.4305969309970172 25.51872399217759 -3.2118389774276106 1.5244119024619407 42.32661826430174 4.745294429108813 -1.9842096650115986 19.39209474831578 2.5563496335977636 18.039861564369016 -10.442003199120247 -32.63993111091399 2.229841612738384 2.390204746674023 -7.226133009322789 1.1866233683803493 -1.4990477393081216 11.643467158223512 -20.25985355257029 12.103814118382875 10.082982032815782 23.712108214886737 6.368517348623057 3.3506450287149234 -2.4842233204921396 -9.163759164351918 0.0000091101275813829 -0.4754272829506565 7.361099337865668e-7 -5.049356006366082 -2.7764794565651174 10.931150265253871 -5.252457517262061 14.885886303705016 1.957029101602177 1.0025930130933507 -11.189661600919642 -7.828756373015221 0.000008459532337081486 -0.63617294212081 -0.000003097483445087097
0.04848236218094826 -0.28591267399724174 0.04084552824497223 1.5202841578192219 -0.8223374383922684 -5.517347393127488 -0.07860728257341547 0.5623083521018571 3.5351010780768597 -0.2315784217995942 2.2653455699382956 11.467046898254168 0 0 0 -0.1571476828108947 1.066627022596032 -3.4700764083450055 -0.06617102703748756 1.7875592375784208 -6.795768656504482 0 0 0 0 0 0 -14.089043423351226 3.5064226574026325 -5.003960704537759 2.24163422110211 4.558915704162248 -81.03470885177184 -17.02153520868048 -1.1028433344769173 0.36130289234606744 2.9279161985959408 -21.216006225870178 -8.327607955184629 4.421676499729559 0.2679395060153301 -5.865191635899171 2.176655314048363 0.23405933438618853 -17.848882805899674 0.37107338132957646 -0.00886200539828746 -7.425006958181407 15.03622418241318 3.4749250729306542 -20.51436231983577 2.5954836796969034 0.5961805647677454 -37.036905732499015 1.870315780413549 0.19294104242914212 -13.19876680767453 8.007652396039605 0.7022401623743538 -9.088118211401644 3.0809581817545 0.5819292621983705 -30.2637480972175 1.0273924357304867 0.0998814486489193 -9.934524927534367 10.770258735282068 1.9497801650483355 -19.85219237169025 2.6009659750853977 0.9350535286020882 -31.41564663879885 0.7626931527516779 0.20708531650114545 -10.152273023922305 -2.217412683698082 18.39064774346936 10.37315162893322 32.67724161684102 2.456530194566731 -2.677658586758085 9.260500934263183 1.9221153415342693 2.4726784827771735 3.1938656817551605 4.543251648897376 5.376893763631017 4.909903524823556 1.3677744368826956 63.971322611060046 22.028535833483076 -1.3272614910613065 -0.516413995731807 -3.6026028771620413 -14.379841932580018 4.8301312036221935 -4.7841106467583385 0.46378013852989086 6.963087059249813 -2.6118001116131087 0.39954889418333717 23.803626622485577 0.13271056145752694 -0.23004475105325636 13.388027426473924 -15.122808192001067 4.58984527339623 33.53390655091067 -3.380961616491111 1.1868668528182662 49.644631533237785 3.3539587316069364 -1.8181027410251245 13.216521702413132 -8.457632829967652 0.9907915836272144 15.084662981947245 -3.4813316248608355 0.8319453674423621 36.37113592824192 3.432512626089077 -1.5112663261980976 16.766109478284488 -10.751313410581634 2.2797750211883994 24.65014000685896 -3.3416735701923574 1.6833248811190071 44.961227551902205 4.682807968015242 -2.024664443397489 19.94843864896646 3.1207443741122587 17.461130165854534 -10.547913154513472 -32.574653170390604 1.8572711832140554 1.9160166257799318 -5.372857085013064 0.1866424662176848 -1.0778770066671084 11.651202106436441 -20.244088151809645 12.103869891197487 10.054544937551238 23.716047142853643 6.344758712252846 3.3713538856791017 -2.51562832399868 -9.192806996675762 2.0102853776917014e-7 -0.4980157471486855 -0.0000034177217715640445 -4.965306212008068 -2.7859799144790625 10.95287104686286 -5.346739265928054 14.890640932395181 1.8694854192808767 0.9993651086488476 -11.236392761909663 -7.789583292049131 0.000005077319536575899 -0.6970592910672115 -0.0000024134604072024603
